# xmcd
#
# Track frame offsets:
#	150
#	20486
#	37975
#	56929
#	70045
#	92532
#	118629
#	139664
#	155353
#	171900
#	189586
#	207181
#	223890
#	241870
#	258603
#
# Disc length: 3675 seconds
#
# Revision: 2
# Processed by: cddbd v1.5.2PL0 Copyright (c) Steve Scherf et al.
# Submitted via: audiograbber 1.83.01
#
DISCID=d60e590f
DTITLE=Various Artist - Chartbusters Country Female Hits Of 2000 Vol.1
DYEAR=2000
DGENRE=Karaoke
TTITLE0=The Dixie Chicks - Goodbye Earl
TTITLE1=SheDaisy - I Will... But
TTITLE2=Lee Ann Womack  - I Hope You Dance
TTITLE3=Alecia Elliott - I'm Diggin' It
TTITLE4=The Dixie Chicks - Cowboy Take Me Away
TTITLE5=Martina McBride - Love's The Only House
TTITLE6=Reba McEntire - I'll Be
TTITLE7=Faith Hill - The Way You Love Me
TTITLE8=Martina McBride - There You Are
TTITLE9=Sara Evans - Born To Fly
TTITLE10=LeAnn Rimes - I Need You
TTITLE11=Reba McEntire - What Do You Say
TTITLE12=Chely Wright - It Was
TTITLE13=Patty Loveless - That's the Kind Of Mood I'm In
TTITLE14=The Dixie Chicks - Without You
EXTD=
EXTT0=
EXTT1=
EXTT2=
EXTT3=
EXTT4=
EXTT5=
EXTT6=
EXTT7=
EXTT8=
EXTT9=
EXTT10=
EXTT11=
EXTT12=
EXTT13=
EXTT14=
PLAYORDER=
